<svg xmlns="http://www.w3.org/2000/svg" width="55" height="18" viewBox="0 0 55 18" fill="none">
  <path d="M23.0034 1.68011C22.1033 1.68011 21.3602 2.03595 20.7741 2.74764C20.209 3.4384 19.8322 4.25475 19.6438 5.19669L19.6124 5.35368C19.6124 5.5002 19.6543 5.61533 19.738 5.69906C19.8427 5.76185 19.9787 5.79325 20.1462 5.79325H25.4839C25.6722 5.79325 25.8083 5.74092 25.892 5.63626C25.9967 5.5316 26.0385 5.39554 26.0176 5.22808C25.913 4.22335 25.6094 3.38607 25.1071 2.71624C24.6047 2.02548 23.9035 1.68011 23.0034 1.68011ZM17.1006 8.83886C17.1006 7.47828 17.3308 6.14909 17.7913 4.85131C18.2518 3.55352 18.974 2.47552 19.9578 1.61731C20.9625 0.738166 22.2289 0.298593 23.757 0.298593C25.5571 0.298593 26.9491 0.884689 27.9329 2.05688C28.9167 3.22908 29.4609 4.66292 29.5656 6.35841V6.42121C29.5656 6.75612 29.3877 6.92358 29.0318 6.92358H20.1148C19.738 6.92358 19.5601 7.11197 19.581 7.48874C19.6438 8.55628 19.8636 9.60288 20.2404 10.6285C20.6172 11.6542 21.1823 12.502 21.9359 13.1718C22.6894 13.8416 23.6209 14.1765 24.7303 14.1765C25.756 14.1765 26.5723 13.8939 27.1793 13.3288C27.7864 12.7636 28.2992 11.9996 28.7179 11.0367C28.8016 10.7646 28.9586 10.6285 29.1888 10.6285C29.3353 10.6285 29.44 10.6913 29.5028 10.8169C29.5656 10.9216 29.5761 11.0681 29.5342 11.2565C29.1993 12.7845 28.5085 14.1451 27.4619 15.3383C26.4153 16.5314 25.0547 17.1279 23.3802 17.1279C22.0196 17.1279 20.8683 16.7302 19.9264 15.9348C18.9845 15.1185 18.2728 14.0823 17.7913 12.8264C17.3308 11.5496 17.1006 10.2204 17.1006 8.83886Z" fill="#837768"/>
  <path d="M37.4061 2.81044C37.1758 2.81044 36.8932 3.01976 36.5583 3.4384C36.2234 3.8361 35.878 4.3908 35.5222 5.10249C35.4175 5.31181 35.3652 5.55253 35.3652 5.82465V11.9159C35.3652 12.9415 35.3861 13.6951 35.428 14.1765C35.4698 14.637 35.585 15.0033 35.7734 15.2755C35.9827 15.5266 36.3176 15.6732 36.7781 15.715C37.1339 15.7569 37.3119 15.9557 37.3119 16.3116C37.3119 16.479 37.2595 16.6151 37.1549 16.7198C37.0711 16.8244 36.9455 16.8768 36.7781 16.8768H31.1578C30.9904 16.8768 30.8543 16.8244 30.7497 16.7198C30.6659 16.6151 30.6241 16.479 30.6241 16.3116C30.6241 15.9557 30.802 15.7569 31.1578 15.715C31.6183 15.6732 31.9428 15.5266 32.1312 15.2755C32.3405 15.0033 32.4661 14.637 32.508 14.1765C32.5498 13.6951 32.5708 12.9415 32.5708 11.9159V6.07583C32.5708 4.92457 32.5184 4.11869 32.4138 3.65818C32.3091 3.19768 32.037 2.96743 31.5974 2.96743C31.5346 2.96743 31.3986 2.98836 31.1892 3.03022C31.1055 3.05115 30.9904 3.06162 30.8439 3.06162C30.6136 3.06162 30.4357 2.95696 30.3101 2.74764C30.2892 2.70578 30.2787 2.64298 30.2787 2.55925C30.2787 2.329 30.4462 2.13014 30.7811 1.96269L32.6022 1.14634L34.2034 0.455583C34.4128 0.350923 34.6326 0.298593 34.8628 0.298593C35.1977 0.298593 35.3652 0.486981 35.3652 0.863756V2.37086C35.3652 2.68484 35.4489 2.84183 35.6164 2.84183C35.7629 2.84183 35.8989 2.73717 36.0245 2.52785C36.9665 1.04168 38.0026 0.298593 39.1329 0.298593C39.7818 0.298593 40.347 0.486981 40.8284 0.863756C41.3099 1.24053 41.5506 1.73244 41.5506 2.33946C41.5506 2.86277 41.3622 3.27094 40.9854 3.56399C40.6087 3.8361 40.2005 3.97216 39.7609 3.97216C39.4679 3.97216 39.2062 3.91983 38.976 3.81517C38.7666 3.68958 38.505 3.50119 38.191 3.25001C37.8561 2.95696 37.5944 2.81044 37.4061 2.81044Z" fill="#837768"/>
  <path d="M45.298 17.1279C44.1677 17.1279 43.299 16.7093 42.692 15.872C42.085 15.0347 41.7814 14.0823 41.7814 13.0148C41.7814 11.9054 42.1373 10.9425 42.849 10.1262C43.5607 9.30983 44.4293 8.62954 45.455 8.08531C46.4807 7.54107 47.7994 6.93404 49.4112 6.26422C49.7042 6.13863 49.8507 5.91884 49.8507 5.60486C49.8298 4.26521 49.6519 3.25001 49.317 2.55925C48.9821 1.84756 48.2913 1.49172 47.2447 1.49172C46.3865 1.49172 45.8213 1.7429 45.5492 2.24527C45.298 2.74764 45.1829 3.45933 45.2038 4.38034C45.2038 4.84084 45.0887 5.24902 44.8584 5.60486C44.6282 5.93977 44.2619 6.10723 43.7595 6.10723C43.299 6.10723 42.9432 5.93977 42.692 5.60486C42.4617 5.26995 42.3466 4.86177 42.3466 4.38034C42.3466 3.66865 42.5769 2.99882 43.0374 2.37086C43.4979 1.7429 44.1363 1.24053 44.9526 0.863756C45.769 0.486981 46.7005 0.298593 47.7471 0.298593C49.1495 0.298593 50.2066 0.518379 50.9183 0.957951C51.63 1.37659 52.1009 1.96269 52.3312 2.71624C52.5614 3.46979 52.6766 4.47453 52.6766 5.73045V13.3916C52.6766 14.3335 52.8963 14.8045 53.3359 14.8045C53.5452 14.8045 53.8069 14.658 54.1209 14.3649C54.2883 14.1975 54.4453 14.1137 54.5918 14.1137C54.6756 14.1137 54.7593 14.1451 54.843 14.2079C54.9477 14.3126 55 14.4172 55 14.5219C55 14.6266 54.9477 14.7522 54.843 14.8987C53.7546 16.3639 52.6661 17.0965 51.5776 17.0965C50.5938 17.0965 50.0391 16.4895 49.9135 15.2755C49.8926 15.0033 49.8193 14.8673 49.6937 14.8673C49.5891 14.8673 49.4949 14.9091 49.4112 14.9929C48.6367 15.6836 47.9459 16.2174 47.3389 16.5942C46.7319 16.95 46.0516 17.1279 45.298 17.1279ZM44.6387 12.1357C44.6387 12.8892 44.827 13.559 45.2038 14.1451C45.5806 14.7103 46.083 14.9929 46.7109 14.9929C47.4436 14.9929 48.3855 14.5114 49.5368 13.5486C49.7461 13.3602 49.8507 13.1299 49.8507 12.8578V8.02251C49.8507 7.72946 49.7042 7.58294 49.4112 7.58294C49.3065 7.58294 49.1704 7.61434 49.003 7.67713C47.5587 8.32602 46.4702 8.97492 45.7376 9.62381C45.005 10.2727 44.6387 11.11 44.6387 12.1357Z" fill="#837768"/>
  <path fill-rule="evenodd" clip-rule="evenodd" d="M9.21999 16.9815C9.40645 16.9654 9.56431 16.8368 9.61606 16.657L10.3863 14.7018C10.5716 14.0575 10.3769 13.7844 10.1058 13.1713C9.9654 12.8537 9.83395 12.5538 9.71952 12.2927C9.51718 11.831 9.36811 11.4908 9.31693 11.3893L6.34658 5.24582C6.13637 4.80658 5.93295 4.42021 5.75392 4.08018C4.97811 2.60661 4.66049 2.00334 6.23383 1.73875C6.73434 1.66385 6.96694 1.42198 6.93706 1.07605C6.90719 0.730112 6.60511 0.534419 6.13335 0.57516L0.566475 1.0559C-0.219807 1.12381 -0.190371 2.19848 0.672392 2.28239C1.34373 2.35115 2.26896 3.15838 3.39016 5.50114L8.61588 16.5902C8.76612 16.8623 8.96839 17.0033 9.21999 16.9815Z" fill="#837768"/>
  <path d="M15.0017 5.98576C15.2764 5.66755 16.0278 4.50709 16.007 3.58398C16.007 1.47879 14.2301 -0.0461098 12.1333 0.0010651C10.0365 0.04824 8.37129 1.85922 8.41394 3.75482C8.45659 5.65042 10.1909 7.14886 12.2877 7.10169C12.3614 7.10003 12.4345 7.09649 12.507 7.09111C12.4914 7.16216 12.4737 7.23585 12.4539 7.31216C12.3347 7.77165 11.8918 8.82802 11.8544 8.93141C11.6529 9.36898 12.2419 9.73415 12.5442 9.35902L15.0017 5.98576Z" fill="#837768"/>
</svg>
